<svg id="Website_Link_Icon" xmlns="http://www.w3.org/2000/svg" xmlns:xlink="http://www.w3.org/1999/xlink" width="18" height="18" viewBox="0 0 18 18">
  <defs>
    <clipPath id="clip-path">
      <rect id="Rectangle_47791" data-name="Rectangle 47791" width="18" height="18" fill="#fff"/>
    </clipPath>
  </defs>
  <g id="Website_Link_Icon-2" data-name="Website_Link_Icon" clip-path="url(#clip-path)">
    <g id="design_system_icons-31" data-name="design system icons-31" transform="translate(3 3)">
      <path id="Path_169366" data-name="Path 169366" d="M23.048,26.851l.616.615a.277.277,0,0,0,.422,0l3.34-3.333a.276.276,0,0,0,0-.421L26.81,23.1a.277.277,0,0,0-.422,0l-3.34,3.3A.388.388,0,0,0,23.048,26.851Z" transform="translate(-19.245 -19.285)" fill="#fff"/>
      <path id="Path_169367" data-name="Path 169367" d="M18.843,27.845a.277.277,0,0,0-.422,0l-2.043,2.039a1.988,1.988,0,0,1-1.946.518,2.13,2.13,0,0,1-1.524-1.521,2.034,2.034,0,0,1,.584-2.006L15.471,24.9a.276.276,0,0,0,0-.421l-.584-.583a.277.277,0,0,0-.422,0l-2.043,2.039h0a3.414,3.414,0,0,0,.1,4.822,3.248,3.248,0,0,0,2.4,1.068,3.515,3.515,0,0,0,2.465-1l1.978-1.974a.276.276,0,0,0,0-.421Z" transform="translate(-11.473 -19.826)" fill="#fff"/>
      <path id="Path_169368" data-name="Path 169368" d="M31.68,14.167a3.559,3.559,0,0,0-2.529-2.524,3.32,3.32,0,0,0-3.275.874l-.065.032L23.9,14.459a.276.276,0,0,0,0,.421l.551.55a.277.277,0,0,0,.422,0l1.978-1.974a1.988,1.988,0,0,1,1.946-.518,2.13,2.13,0,0,1,1.524,1.521,2.034,2.034,0,0,1-.584,2.006l-1.913,1.909a.276.276,0,0,0,0,.421l.551.55a.277.277,0,0,0,.422,0l1.978-1.974A3.1,3.1,0,0,0,31.68,14.167Z" transform="translate(-19.803 -11.52)" fill="#fff"/>
    </g>
  </g>
</svg>
