<svg id="Twitter" xmlns="http://www.w3.org/2000/svg" width="20" height="20" viewBox="0 0 20 20">
  <rect id="Rectangle_18718" data-name="Rectangle 18718" width="20" height="20" fill="none"/>
  <g id="twitter-social-logotype" transform="translate(1 2.5)">
    <path id="Path_110999" data-name="Path 110999" d="M17.979,10.84a.088.088,0,0,0-.1-.025,7.08,7.08,0,0,1-1.687.524A3.828,3.828,0,0,0,17.5,9.446a.093.093,0,0,0-.029-.1.088.088,0,0,0-.1-.007,7.12,7.12,0,0,1-2.245.887,3.722,3.722,0,0,0-2.7-1.173,3.794,3.794,0,0,0-3.746,3.832,3.945,3.945,0,0,0,.072.754A10.255,10.255,0,0,1,1.4,9.771a.086.086,0,0,0-.076-.033.089.089,0,0,0-.07.045,3.9,3.9,0,0,0,.9,4.925,3.524,3.524,0,0,1-1.307-.432.087.087,0,0,0-.088,0,.092.092,0,0,0-.045.077V14.4a3.836,3.836,0,0,0,2.633,3.661A3.518,3.518,0,0,1,2.1,18.045a.089.089,0,0,0-.084.029A.093.093,0,0,0,2,18.162,3.763,3.763,0,0,0,5.253,20.81,7.091,7.091,0,0,1,.961,22.242,7.244,7.244,0,0,1,.1,22.19.09.09,0,0,0,0,22.25a.093.093,0,0,0,.036.108,10.281,10.281,0,0,0,5.653,1.7A10.519,10.519,0,0,0,16.186,13.319q0-.22-.008-.439a7.569,7.569,0,0,0,1.807-1.93A.093.093,0,0,0,17.979,10.84Z" transform="translate(0 -9.053)" fill="#03aaff"/>
  </g>
</svg>
